<svg width="48" height="48" viewBox="0 0 48 48" fill="none" xmlns="http://www.w3.org/2000/svg">
<rect width="48" height="48" rx="10" fill="#FF6F0F" fill-opacity="0.141176"/>
<path d="M34.0125 16.5375H29.6375C29.625 13.45 27.1125 10.9375 24.0125 10.9375C20.9125 10.9375 18.4125 13.45 18.3875 16.5375H14C12.625 16.5375 11.5 17.6625 11.5 19.0375V34.0375C11.5 35.4125 12.625 36.5375 14 36.5375H34.0125C35.3875 36.5375 36.5125 35.4125 36.5125 34.0375V19.0375C36.5125 17.6625 35.3875 16.5375 34.0125 16.5375ZM24.0125 13.4375C25.725 13.4375 27.125 14.825 27.1375 16.5375H20.8875C20.9 14.825 22.3 13.4375 24.0125 13.4375ZM24.125 32.9C23.4375 32.9 22.875 32.3375 22.875 31.65C22.875 30.9625 23.4375 30.4 24.125 30.4C24.8125 30.4 25.375 30.9625 25.375 31.65C25.375 32.3375 24.8125 32.9 24.125 32.9ZM27.775 24.7375C27.4625 26.0875 26.525 26.7625 25.8375 27.2375C25.1375 27.7375 24.9625 27.9125 24.9625 28.3125C24.9625 28.8625 24.5125 29.3125 23.9625 29.3125C23.4125 29.3125 22.9625 28.8625 22.9625 28.3125C22.9625 26.825 23.95 26.125 24.675 25.6125C25.3 25.175 25.6875 24.875 25.825 24.2875C25.925 23.8375 25.85 23.4375 25.575 23.1C25.225 22.65 24.5875 22.3625 23.9625 22.3625C23 22.3625 22.2 23.1125 22.125 24.075C22.0875 24.625 21.625 25.0625 21.0625 25C20.5125 24.9625 20.1 24.4875 20.1375 23.9375C20.275 21.9375 21.9625 20.375 23.9625 20.375C25.2 20.375 26.4125 20.95 27.1375 21.8625C27.7875 22.675 28.0125 23.7 27.7625 24.75L27.775 24.7375Z" fill="#FF6F0F"/>
</svg>
