<svg width="48" height="48" viewBox="0 0 48 48" fill="none" xmlns="http://www.w3.org/2000/svg">
<rect width="48" height="48" rx="10" fill="#FF6F0F" fill-opacity="0.141176"/>
<path d="M29.7003 24.1377C27.4628 24.1377 25.4378 25.1002 23.9878 26.6377C22.5253 25.1002 20.5128 24.1377 18.2753 24.1377C14.1503 24.1377 10.7378 27.4002 10.2878 31.6002C10.2253 32.1502 10.5128 32.6877 11.0253 32.9127C14.5003 34.4002 19.0253 35.3127 23.9878 35.3127C28.9503 35.3127 33.4753 34.4002 36.9503 32.9127C37.4628 32.7002 37.7378 32.1502 37.6878 31.6002C37.2378 27.4002 33.8378 24.1377 29.7003 24.1377Z" fill="#FF6F0F"/>
<path d="M17.7859 22.9254C20.5888 22.9254 22.8609 20.6532 22.8609 17.8504C22.8609 15.0475 20.5888 12.7754 17.7859 12.7754C14.9831 12.7754 12.7109 15.0475 12.7109 17.8504C12.7109 20.6532 14.9831 22.9254 17.7859 22.9254Z" fill="#FF6F0F"/>
<path d="M30.1746 22.9254C32.9775 22.9254 35.2496 20.6532 35.2496 17.8504C35.2496 15.0475 32.9775 12.7754 30.1746 12.7754C27.3718 12.7754 25.0996 15.0475 25.0996 17.8504C25.0996 20.6532 27.3718 22.9254 30.1746 22.9254Z" fill="#FF6F0F"/>
</svg>
