<svg width="48" height="48" viewBox="0 0 48 48" fill="none" xmlns="http://www.w3.org/2000/svg">
<rect width="48" height="48" rx="10" fill="#FF6F0F" fill-opacity="0.141176"/>
<path d="M34.7375 30.4246C35.85 28.5496 36.5125 26.3746 36.5125 24.0371C36.5125 17.1371 30.9125 11.5371 24.0125 11.5371C17.1125 11.5371 11.5 17.1246 11.5 24.0371C11.5 30.9496 17.1 36.5371 24 36.5371C26.3375 36.5371 28.5125 35.8871 30.3875 34.7621L34.225 35.7871C35.15 36.0371 36 35.1871 35.75 34.2621L34.725 30.4246H34.7375ZM30.1125 30.0121C29.9125 30.2121 29.6625 30.2996 29.4 30.2996C29.1375 30.2996 28.8875 30.1996 28.6875 30.0121L27.8125 29.1371C26.7375 29.9371 25.425 30.4371 24 30.4371C20.475 30.4371 17.6 27.5621 17.6 24.0371C17.6 20.5121 20.475 17.6371 24 17.6371C27.525 17.6371 30.4 20.5121 30.4 24.0371C30.4 25.4121 29.9625 26.6746 29.225 27.7121L30.1125 28.5996C30.5 28.9871 30.5 29.6246 30.1125 30.0121Z" fill="#FF6F0F"/>
<path d="M25.1766 25.0752C25.5641 24.6877 26.2016 24.6877 26.5891 25.0752L27.7766 26.2627C28.1641 25.6127 28.4016 24.8502 28.4016 24.0377C28.4016 21.6127 26.4266 19.6377 24.0016 19.6377C21.5766 19.6377 19.6016 21.6127 19.6016 24.0377C19.6016 26.4627 21.5766 28.4377 24.0016 28.4377C24.8891 28.4377 25.7016 28.1752 26.4016 27.7252L25.1766 26.5002C24.7891 26.1127 24.7891 25.4752 25.1766 25.0877V25.0752Z" fill="#FF6F0F"/>
</svg>
